<svg id="Capa_1" enable-background="new 0 0 512 512" height="512" viewBox="0 0 512 512" width="512" xmlns="http://www.w3.org/2000/svg"><g><path d="m151 190.624c49.626 0 90-40.374 90-90 0-31.21-15.81-59.743-42.292-76.327-3.511-2.199-8.139-1.135-10.337 2.376s-1.135 8.139 2.376 10.337c22.074 13.824 35.253 37.604 35.253 63.614 0 41.355-33.645 75-75 75s-75-33.645-75-75 33.645-75 75-75c3.4 0 6.824.23 10.177.685 4.116.555 7.883-2.322 8.438-6.427.556-4.104-2.321-7.883-6.426-8.438-4.018-.544-8.119-.819-12.19-.819-49.626 0-90 40.374-90 90s40.375 89.999 90.001 89.999z"/><path d="m123.985 151.559c.686 2.083 2.25 3.763 4.28 4.595 7.24 2.967 14.89 4.471 22.736 4.471 32.992 0 59.906-26.841 59.996-59.833.007-2.464-1.197-4.773-3.22-6.18-2.022-1.404-4.608-1.729-6.915-.863-3.327 1.249-6.825 1.882-10.397 1.882-16.326 0-29.609-13.282-29.609-29.609 0-4.921 1.169-9.604 3.474-13.921 1.162-2.175 1.18-4.782.049-6.974-1.131-2.191-3.268-3.687-5.713-3.999-2.611-.334-5.19-.503-7.666-.503-33.084 0-60 26.916-60 60 0 11.523 3.291 22.731 9.518 32.412 1.185 1.843 3.118 3.075 5.289 3.373 2.173.299 4.364-.37 6.002-1.825 1.563-1.39 3.563-2.155 5.63-2.155 4.687 0 8.5 3.813 8.5 8.5 0 1.558-.417 3.035-1.241 4.391-1.138 1.873-1.399 4.154-.713 6.238zm-6.545-34.13c-2.623 0-5.203.44-7.643 1.283-2.496-5.672-3.795-11.817-3.795-18.088 0-23.48 18.077-42.818 41.045-44.828-.786 3.342-1.189 6.778-1.189 10.225 0 24.598 20.011 44.609 44.609 44.609 1.496 0 2.983-.074 4.459-.221-4.485 20.117-22.495 35.215-43.923 35.215-3.507 0-6.96-.4-10.327-1.194.175-1.155.265-2.325.265-3.501-.001-12.958-10.543-23.5-23.501-23.5z"/><path d="m356 190.624c15.068 0 29.98-3.799 43.125-10.986 3.634-1.987 4.969-6.544 2.981-10.179-1.986-3.634-6.544-4.972-10.179-2.981-10.943 5.983-23.367 9.146-35.928 9.146-41.355 0-75-33.645-75-75s33.645-75 75-75 75 33.645 75 75c0 16.507-5.257 32.163-15.201 45.275-2.503 3.301-1.856 8.005 1.443 10.508 3.301 2.503 8.005 1.855 10.508-1.443 11.939-15.742 18.25-34.533 18.25-54.34 0-49.626-40.374-90-90-90s-90 40.374-90 90 40.375 90 90.001 90z"/><path d="m328.985 151.558c.686 2.084 2.25 3.764 4.28 4.596 7.24 2.967 14.89 4.471 22.736 4.471 32.992 0 59.906-26.841 59.996-59.833.007-2.464-1.197-4.773-3.22-6.18-2.023-1.404-4.607-1.729-6.915-.863-3.327 1.249-6.826 1.882-10.397 1.882-16.326 0-29.608-13.282-29.608-29.609 0-4.92 1.169-9.604 3.475-13.922 1.161-2.175 1.18-4.782.048-6.973-1.131-2.191-3.268-3.687-5.713-3.999-2.61-.334-5.189-.503-7.665-.503-33.084 0-60 26.916-60 60 0 11.522 3.291 22.73 9.518 32.411 1.186 1.844 3.117 3.076 5.289 3.374 2.169.3 4.363-.37 6.002-1.825 1.563-1.39 3.563-2.155 5.63-2.155 4.687 0 8.5 3.813 8.5 8.5 0 1.558-.417 3.035-1.24 4.39-1.14 1.873-1.401 4.154-.716 6.238zm-6.545-34.129c-2.623 0-5.203.44-7.643 1.283-2.497-5.673-3.796-11.817-3.796-18.088 0-23.48 18.077-42.818 41.045-44.828-.786 3.343-1.189 6.778-1.189 10.225 0 24.598 20.012 44.609 44.608 44.609 1.495 0 2.983-.074 4.459-.221-4.484 20.116-22.494 35.215-43.923 35.215-3.507 0-6.96-.4-10.326-1.193.176-1.156.265-2.326.265-3.502 0-12.958-10.542-23.5-23.5-23.5z"/><path d="m218.5 219.652c0 4.143 3.358 7.5 7.5 7.5s7.5-3.357 7.5-7.5c0-12.406 10.093-22.5 22.5-22.5 12.406 0 22.5 10.094 22.5 22.5 0 4.143 3.357 7.5 7.5 7.5s7.5-3.357 7.5-7.5c0-20.678-16.822-37.5-37.5-37.5s-37.5 16.823-37.5 37.5z"/><path d="m38.5 350.698c4.142 0 7.5-3.357 7.5-7.5v-65.322c0-9.649 7.851-17.5 17.5-17.5h33.33c4.142 0 7.5-3.357 7.5-7.5s-3.358-7.5-7.5-7.5h-33.33c-17.92 0-32.5 14.579-32.5 32.5v65.322c0 4.143 3.358 7.5 7.5 7.5z"/><path d="m124.053 252.876c0 4.143 3.358 7.5 7.5 7.5h316.947c9.649 0 17.5 7.851 17.5 17.5v65.23c0 4.143 3.357 7.5 7.5 7.5s7.5-3.357 7.5-7.5v-65.23c0-17.921-14.579-32.5-32.5-32.5h-316.947c-4.142 0-7.5 3.357-7.5 7.5z"/><path d="m473.5 395.751c-4.143 0-7.5 3.357-7.5 7.5v65.625c0 9.649-7.851 17.5-17.5 17.5h-128.011c-4.143 0-7.5 3.357-7.5 7.5s3.357 7.5 7.5 7.5h128.011c17.921 0 32.5-14.579 32.5-32.5v-65.625c0-4.143-3.357-7.5-7.5-7.5z"/><path d="m285.596 486.376h-222.096c-9.649 0-17.5-7.851-17.5-17.5v-65.621c0-4.143-3.358-7.5-7.5-7.5s-7.5 3.357-7.5 7.5v65.621c0 17.921 14.58 32.5 32.5 32.5h222.096c4.143 0 7.5-3.357 7.5-7.5s-3.358-7.5-7.5-7.5z"/><path d="m62 373.226c0-4.143-3.358-7.5-7.5-7.5h-47c-4.142 0-7.5 3.357-7.5 7.5s3.358 7.5 7.5 7.5h47c4.142 0 7.5-3.358 7.5-7.5z"/><path d="m504.5 365.726h-47c-4.143 0-7.5 3.357-7.5 7.5s3.357 7.5 7.5 7.5h47c4.143 0 7.5-3.357 7.5-7.5s-3.357-7.5-7.5-7.5z"/><path d="m115.029 414.3c-13.562 0-26.683-5.544-35.098-14.83-2.781-3.069-7.524-3.303-10.594-.521s-3.303 7.524-.521 10.594c11.211 12.372 28.487 19.758 46.213 19.758 20.809 0 38.917-13.528 42.12-31.467 2.4-13.444-4.061-31.14-29.394-40.483-15.514-5.724-29.865-11.982-32.896-13.317-4.792-3.357-7.137-8.835-6.286-14.762 1.018-7.089 6.344-12.742 14.248-15.123 20.326-6.123 38.394 8.524 38.652 8.736 3.171 2.647 7.888 2.231 10.547-.932 2.665-3.171 2.255-7.902-.916-10.567-.981-.825-24.364-20.107-52.61-11.601-13.438 4.048-22.929 14.529-24.77 27.354-1.703 11.863 3.431 23.27 13.397 29.768 1.253.805 17.377 7.775 35.441 14.516 14.347 5.293 21.571 13.958 19.818 23.774-1.651 9.26-11.799 19.103-27.351 19.103z"/><path d="m398.68 463.655c.813.281 1.639.414 2.451.414 3.109 0 6.016-1.948 7.088-5.051l36.496-105.559c1.354-3.915-.723-8.186-4.637-9.539-3.92-1.355-8.187.724-9.539 4.637l-19.078 55.181-19.579-55.236c-1.384-3.903-5.671-5.944-9.575-4.563-3.904 1.384-5.947 5.671-4.563 9.575l25.859 72.954-9.559 27.648c-1.355 3.915.722 8.186 4.636 9.539z"/><path d="m333.46 343.509c-4.143 0-7.5 3.357-7.5 7.5v70.791c0 4.143 3.357 7.5 7.5 7.5s7.5-3.357 7.5-7.5v-42.185c0-1.302.839-5.214 8.613-13.396 4.468-4.702 8.338-6.7 8.512-6.789 3.703-1.795 5.271-6.244 3.502-9.967-1.778-3.741-6.252-5.329-9.993-3.556-.562.267-5.119 2.521-10.634 7.728v-2.626c0-4.143-3.357-7.5-7.5-7.5z"/><path d="m300.241 345.907c-.562.267-5.119 2.521-10.634 7.728v-2.626c0-4.143-3.357-7.5-7.5-7.5s-7.5 3.357-7.5 7.5v70.791c0 4.143 3.357 7.5 7.5 7.5s7.5-3.357 7.5-7.5v-42.185c0-1.302.839-5.214 8.613-13.396 4.472-4.706 8.345-6.704 8.513-6.789 3.702-1.795 5.27-6.244 3.501-9.967-1.778-3.741-6.252-5.329-9.993-3.556z"/><path d="m172.183 386.404c0 23.652 19.243 42.896 42.896 42.896s42.895-19.243 42.895-42.896-19.242-42.896-42.895-42.896-42.896 19.244-42.896 42.896zm70.791 0c0 15.382-12.514 27.896-27.896 27.896s-27.896-12.514-27.896-27.896 12.514-27.896 27.896-27.896 27.896 12.514 27.896 27.896z"/></g></svg>